HIERARCHY
ROOT Hips
{
	OFFSET 15.585500 22.159004 44.358299
	CHANNELS 6 Xposition Yposition Zposition Zrotation Xrotation Yrotation
	JOINT Chest
	{
		OFFSET -0.128500 0.160400 6.566002
		CHANNELS 6 Xposition Yposition Zposition Zrotation Xrotation Yrotation
		JOINT Chest2
		{
			OFFSET 0.000000 0.000000 3.554802
			CHANNELS 6 Xposition Yposition Zposition Zrotation Xrotation Yrotation
			JOINT Neck
			{
				OFFSET 0.000000 0.000000 8.267998
				CHANNELS 6 Xposition Yposition Zposition Zrotation Xrotation Yrotation
				JOINT Head
				{
					OFFSET 0.000000 0.000002 2.173897
					CHANNELS 6 Xposition Yposition Zposition Zrotation Xrotation Yrotation
					End Site
					{
						OFFSET 0.000000 0.000000 7.718697
					}
				}
			}
			JOINT LeftCollar
			{
				OFFSET 2.057500 0.117599 5.946301
				CHANNELS 6 Xposition Yposition Zposition Zrotation Xrotation Yrotation
				JOINT LeftShoulder
				{
					OFFSET 4.957699 0.000000 0.000000
					CHANNELS 6 Xposition Yposition Zposition Zrotation Xrotation Yrotation
					JOINT LeftElbow
					{
						OFFSET 0.000000 0.000000 -8.465500
						CHANNELS 6 Xposition Yposition Zposition Zrotation Xrotation Yrotation
						JOINT LeftWrist
						{
							OFFSET 0.000000 -0.000002 -14.594898
							CHANNELS 6 Xposition Yposition Zposition Zrotation Xrotation Yrotation
							End Site
							{
								OFFSET 0.000000 0.000000 -2.173901
							}
						}
					}
				}
			}
			JOINT RightCollar
			{
				OFFSET -3.048500 -0.728800 6.604099
				CHANNELS 6 Xposition Yposition Zposition Zrotation Xrotation Yrotation
				JOINT RightShoulder
				{
					OFFSET -3.710299 0.000000 0.000000
					CHANNELS 6 Xposition Yposition Zposition Zrotation Xrotation Yrotation
					JOINT RightElbow
					{
						OFFSET 0.000000 0.000000 -10.450901
						CHANNELS 6 Xposition Yposition Zposition Zrotation Xrotation Yrotation
						JOINT RightWrist
						{
							OFFSET 0.000000 0.000000 -12.539200
							CHANNELS 6 Xposition Yposition Zposition Zrotation Xrotation Yrotation
							End Site
							{
								OFFSET 0.000000 -0.000002 -2.173901
							}
						}
					}
				}
			}
		}
	}
	JOINT LeftHip
	{
		OFFSET 2.442599 -0.601400 -2.767502
		CHANNELS 6 Xposition Yposition Zposition Zrotation Xrotation Yrotation
		JOINT LeftKnee
		{
			OFFSET 0.000000 -0.000002 -17.033703
			CHANNELS 6 Xposition Yposition Zposition Zrotation Xrotation Yrotation
			JOINT LeftAnkle
			{
				OFFSET 0.000000 -0.000002 -19.318800
				CHANNELS 6 Xposition Yposition Zposition Zrotation Xrotation Yrotation
				End Site
				{
					OFFSET 0.000000 -8.281900 0.000000
				}
			}
		}
	}
	JOINT RightHip
	{
		OFFSET -3.126200 -0.601400 -2.283501
		CHANNELS 6 Xposition Yposition Zposition Zrotation Xrotation Yrotation
		JOINT RightKnee
		{
			OFFSET 0.000000 -0.000002 -16.919401
			CHANNELS 6 Xposition Yposition Zposition Zrotation Xrotation Yrotation
			JOINT RightAnkle
			{
				OFFSET 0.000000 -0.000002 -18.035900
				CHANNELS 6 Xposition Yposition Zposition Zrotation Xrotation Yrotation
				End Site
				{
					OFFSET 0.000000 -9.230099 0.000000
				}
			}
		}
	}
}
MOTION
Frames: 7
Frame Time: 0.041667
24.053099 39.391205 8.101799 2.417928 -6.468437 -0.267979 -0.128499 0.160401 6.566008 -2.959983 13.579203 2.656952 -0.000002 -0.000003 3.554809 3.140037 -8.755911 -0.360665 -0.000002 0.000006 8.267995 12.739474 23.126670 -7.057608 -0.000003 -0.000003 2.173900 -0.041978 6.414508 1.921817 2.057507 0.117606 5.946298 -13.731442 -7.337893 18.669634 4.957696 0.000004 -0.000001 1.774511 39.797610 -112.010991 0.000006 0.000001 -8.465498 569.153325 -116.614784 262.811254 0.000004 0.000000 -14.594895 -1135.775983 -19.866059 -357.771319 -3.048503 -0.728797 6.604095 27.054869 0.777798 -13.407783 -3.710295 0.000004 -0.000001 19.742930 30.019764 78.763590 -0.000007 0.000010 -10.450894 755.970419 -78.842363 720.186675 0.000004 0.000004 -12.539199 38.980993 168.765136 -225.594619 2.442594 -0.601399 -2.767501 132.201344 -5.099724 90.663323 -0.000003 -0.000003 -17.033709 -172.524472 46.831906 166.913786 -0.000001 0.000001 -19.318802 -137.647423 120.539042 398.129842 -3.126201 -0.601402 -2.283501 -128.487879 -29.437654 -88.436005 -0.000001 -0.000002 -16.919397 329.759566 -61.153170 -203.162133 0.000000 -0.000000 -18.035898 182.723762 53.067387 -181.856287
24.074303 39.401001 8.101109 2.360322 -6.576990 -0.052639 -0.128501 0.160406 6.566006 -2.918358 13.554293 2.772605 -0.000003 0.000003 3.554803 3.070569 -8.766100 -0.382333 -0.000002 0.000005 8.267994 12.961606 23.327318 -7.673209 0.000004 0.000001 2.173898 -0.058705 6.420189 1.861660 2.057505 0.117602 5.946306 -14.018373 -6.970495 17.988055 4.957691 0.000006 0.000003 1.595287 39.523351 -111.898518 0.000008 0.000001 -8.465505 573.348591 -115.652574 266.605096 -0.000003 -0.000000 -14.594894 -1136.938208 -21.761884 -357.795416 -3.048503 -0.728799 6.604095 27.146822 0.738459 -13.499483 -3.710289 0.000002 -0.000000 18.374619 30.445681 80.064953 -0.000005 0.000007 -10.450902 756.340615 -79.948594 720.747461 0.000006 0.000002 -12.539192 38.125313 168.417630 -224.017323 2.442593 -0.601395 -2.767499 132.262542 -5.097516 90.750873 -0.000003 -0.000003 -17.033707 -172.618702 46.819919 166.816032 -0.000000 0.000002 -19.318806 -137.555625 120.540913 398.111236 -3.126196 -0.601400 -2.283493 -128.213429 -29.749271 -88.102555 -0.000003 -0.000003 -16.919401 328.979941 -61.136702 -203.480338 -0.000001 -0.000001 -18.035898 182.554591 53.069026 -181.812587
24.094902 39.409306 8.100697 2.304056 -6.669602 0.231463 -0.128502 0.160400 6.566003 -2.857817 13.510275 2.797986 -0.000001 0.000001 3.554806 3.015982 -8.752590 -0.397504 -0.000003 -0.000001 8.268002 13.152932 23.501562 -8.268084 -0.000000 0.000001 2.173895 -0.078385 6.427098 1.793885 2.057503 0.117595 5.946306 -14.294914 -6.636231 17.311494 4.957696 0.000003 0.000004 1.296660 39.234970 -111.756826 0.000004 0.000002 -8.465499 577.869521 -114.822242 270.680725 0.000005 0.000001 -14.594894 -1137.670295 -23.886937 -357.174853 -3.048505 -0.728804 6.604102 27.224425 0.694432 -13.555512 -3.710291 0.000003 -0.000001 17.036432 30.802698 81.337779 -0.000004 0.000008 -10.450901 756.843263 -81.069756 721.448894 0.000008 0.000000 -12.539194 37.223742 168.060834 -222.427446 2.442595 -0.601398 -2.767503 132.329082 -5.149003 90.894983 -0.000002 -0.000003 -17.033703 -172.702904 46.806562 166.721257 -0.000004 0.000001 -19.318804 -137.465234 120.543673 398.091347 -3.126196 -0.601404 -2.283502 -127.918925 -29.992122 -87.733268 -0.000005 -0.000004 -16.919399 328.201245 -61.118192 -203.799663 0.000003 -0.000001 -18.035898 182.382744 53.070464 -181.767631
24.114803 39.415901 8.100697 2.223046 -6.764636 0.233861 -0.128501 0.160402 6.566009 -2.836182 13.447683 3.090950 -0.000000 0.000000 3.554804 2.974392 -8.756572 -0.410632 0.000001 -0.000000 8.267993 13.317659 23.692173 -8.848331 0.000003 0.000006 2.173897 -0.102318 6.435632 1.718542 2.057503 0.117597 5.946301 -14.557513 -6.298075 16.658263 4.957697 0.000005 0.000003 1.243187 38.866676 -111.595380 0.000007 -0.000002 -8.465506 582.651309 -114.290232 274.973963 0.000001 0.000002 -14.594895 -1138.550461 -25.886374 -356.739715 -3.048500 -0.728803 6.604096 27.289643 0.684907 -13.590591 -3.710295 0.000000 0.000001 15.728696 31.088948 82.581427 -0.000001 0.000005 -10.450904 757.576661 -82.214297 722.387581 0.000006 0.000005 -12.539191 36.266344 167.691444 -220.833840 2.442592 -0.601398 -2.767503 132.405089 -5.009025 90.847656 -0.000001 0.000002 -17.033703 -172.779184 46.791413 166.630647 -0.000000 0.000000 -19.318800 -137.377261 120.547088 398.070856 -3.126199 -0.601399 -2.283501 -127.695250 -30.449417 -87.558934 -0.000003 -0.000004 -16.919394 327.430909 -61.097750 -204.116023 0.000002 -0.000002 -18.035898 182.210418 53.071710 -181.721923
24.133598 39.421108 8.100899 2.166590 -6.832726 0.538068 -0.128500 0.160400 6.566005 -2.763869 13.365127 3.056754 -0.000002 -0.000002 3.554803 2.945177 -8.758722 -0.419903 0.000000 0.000001 8.268007 13.455623 23.880804 -9.411074 0.000003 0.000004 2.173898 -0.130872 6.445897 1.635479 2.057509 0.117601 5.946310 -14.806324 -5.975804 16.024059 4.957695 0.000002 0.000005 0.937543 38.504549 -111.451796 0.000005 0.000006 -8.465508 587.844329 -113.748113 279.589805 0.000003 0.000009 -14.594897 -1138.840607 -27.927552 -356.432302 -3.048501 -0.728799 6.604105 27.343266 0.691722 -13.598171 -3.710298 0.000003 -0.000001 14.451181 31.303184 83.797269 -0.000001 0.000009 -10.450898 758.710855 -83.389445 723.731926 0.000003 0.000004 -12.539192 35.239313 167.309049 -219.210864 2.442592 -0.601402 -2.767506 132.478308 -5.084640 91.022393 -0.000002 0.000003 -17.033701 -172.850067 46.774980 166.546062 0.000000 0.000001 -19.318800 -137.293264 120.550803 398.050666 -3.126198 -0.601405 -2.283503 -127.399871 -30.643647 -87.197528 -0.000002 -0.000002 -16.919386 326.675107 -61.075579 -204.426647 0.000000 -0.000002 -18.035900 182.039240 53.072827 -181.675997
24.151398 39.424706 8.101402 2.104148 -6.897401 0.716909 -0.128499 0.160404 6.566006 -2.712222 13.264874 3.131739 0.000001 0.000001 3.554801 2.927139 -8.758939 -0.425403 -0.000005 0.000004 8.268004 13.567659 24.068357 -9.955313 0.000001 0.000005 2.173896 -0.164452 6.457923 1.544847 2.057500 0.117602 5.946302 -15.040268 -5.670687 15.410088 4.957700 0.000000 -0.000001 0.689426 38.091302 -111.292844 0.000002 -0.000004 -8.465506 593.353833 -113.296043 284.432136 0.000001 -0.000003 -14.594893 -1139.054146 -30.078114 -355.734830 -3.048504 -0.728802 6.604100 27.386552 0.714792 -13.578922 -3.710292 -0.000004 -0.000000 13.204920 31.445436 84.986910 -0.000006 0.000013 -10.450902 760.562984 -84.600198 725.798140 0.000003 0.000006 -12.539194 34.123325 166.908458 -217.566892 2.442595 -0.601394 -2.767504 132.551910 -5.079032 91.115864 -0.000000 -0.000009 -17.033709 -172.917208 46.757464 166.469113 -0.000001 0.000000 -19.318802 -137.214402 120.554519 398.031460 -3.126200 -0.601399 -2.283500 -127.144846 -30.921629 -86.928986 -0.000002 -0.000002 -16.919397 325.940015 -61.051912 -204.728486 0.000001 -0.000003 -18.035894 181.870876 53.073804 -181.630494
24.168001 39.427006 8.102001 2.042168 -6.947063 0.885949 -0.128498 0.160405 6.566001 -2.660643 13.140740 3.197974 -0.000002 0.000000 3.554808 2.918646 -8.757314 -0.427472 0.000003 -0.000002 8.267993 13.654312 24.255409 -10.479264 0.000001 -0.000006 2.173900 -0.202942 6.471558 1.446642 2.057504 0.117594 5.946302 -15.258135 -5.383950 14.816623 4.957696 0.000004 0.000005 0.421730 37.640520 -111.127150 0.000000 -0.000001 -8.465500 599.087913 -113.041530 289.409704 0.000010 -0.000002 -14.594892 -1138.663896 -31.944235 -355.761495 -3.048498 -0.728802 6.604100 27.421121 0.753815 -13.533911 -3.710291 -0.000001 -0.000002 11.991194 31.516552 86.153001 -0.000004 0.000009 -10.450896 763.839398 -85.845977 729.292520 0.000008 0.000008 -12.539192 32.928492 166.498278 -215.908632 2.442596 -0.601396 -2.767501 132.677340 -5.072754 91.232046 -0.000001 -0.000006 -17.033707 -172.998037 46.691214 166.428269 -0.000002 0.000004 -19.318808 -137.142221 120.557743 398.014056 -3.126196 -0.601397 -2.283500 -126.902497 -31.182498 -86.683830 -0.000003 -0.000000 -16.919399 325.231342 -61.026818 -205.019084 -0.000001 -0.000006 -18.035896 181.705626 53.074620 -181.585169
